<mxfile modified="2021-02-09T02:10:59.440Z" host="app.diagrams.net" agent="5.0 (Windows NT 10.0; Win64; x64) AppleWebKit/537.36 (KHTML, like Gecko) Chrome/87.0.4280.141 Safari/537.36 Edg/87.0.664.75" etag="vtZVape4HNELtVx-Hih8" version="14.3.0" type="github">
  <diagram id="C2fSY1v2SiZeoUbDoYyL" name="Page-1">
    <mxGraphModel dx="1038" dy="507" grid="1" gridSize="10" guides="1" tooltips="1" connect="1" arrows="1" fold="1" page="1" pageScale="1" pageWidth="1169" pageHeight="827" math="0" shadow="0">
      <root>
        <mxCell id="0" />
        <mxCell id="1" parent="0" />
        <mxCell id="6e2yDG3WxbTbOnfnAzfk-1" value="" style="rounded=1;whiteSpace=wrap;html=1;strokeColor=#FF8000;" vertex="1" parent="1">
          <mxGeometry x="310" y="120" width="740" height="480" as="geometry" />
        </mxCell>
        <mxCell id="3ne1QswCM8ZiEu4GHsYG-31" value="ITMP CICD Current" style="text;html=1;strokeColor=none;fillColor=none;align=center;verticalAlign=middle;whiteSpace=wrap;rounded=0;fontStyle=1;fontSize=20;fontColor=#4D4D4D;" parent="1" vertex="1">
          <mxGeometry x="189.5" y="50" width="790" height="30" as="geometry" />
        </mxCell>
        <mxCell id="3ne1QswCM8ZiEu4GHsYG-32" value="" style="line;strokeWidth=2;html=1;fontSize=20;fontColor=#4D4D4D;" parent="1" vertex="1">
          <mxGeometry x="103.5" y="80" width="960" height="10" as="geometry" />
        </mxCell>
        <mxCell id="6e2yDG3WxbTbOnfnAzfk-4" value="" style="dashed=0;outlineConnect=0;html=1;align=center;labelPosition=center;verticalLabelPosition=bottom;verticalAlign=top;shape=mxgraph.weblogos.github" vertex="1" parent="1">
          <mxGeometry x="124.75" y="190" width="60" height="50" as="geometry" />
        </mxCell>
        <mxCell id="6e2yDG3WxbTbOnfnAzfk-5" value="" style="shape=image;verticalLabelPosition=bottom;labelBackgroundColor=#ffffff;verticalAlign=top;aspect=fixed;imageAspect=0;image=data:image/png,iVBORw0KGgoAAAANSUhEUgAAAD0AAABQCAYAAACqCH1tAAASUUlEQVR4Ae1cB3hUZbqelb0IBEgIaUCAhFD0untR7rqrgC4gVaWjAgIJCQFJAgFSZ9ITEqrSA4gg0g01IlIUkKIYEJFOCukhvWdmztR3n++fOSeZZFIIGR64l+NzOP073/u/3/+1OVGEehatFth46BLsRgch5psfoaET/0cWEY/jTmouZkftw+6T19gplVqDVz9ZBtG/vNFtbBgqpBw7f/TCLcyK2IOrdzP4R5+7rQB6vN82iN7whPl7AUh7VMyA7Dl5Df9y/QKxhy+DiC4ul6Lrh6EQDfDEQPe1eF65F0Cv3HMW7f7thxELY1FWKTPKnlyhxBTJ12j7ji8CNx03es/zcFIATcomZxWiSq5oUG+FUo3EjPwG73nWL4pmhO3G+riLuJua+1i6JmYWYMvRX+C6dD+KyqoMnj31233EHryETQcv4vz1FOHatXsZ2BR3EbGHLuPYxdvC+cy8Umw8eAlbjv5qZP0FO47/htO/3UdhrfcIAvQ7xy7cZrK3HruCzYcvI+7sn7VvYcei/jNW4uXBPrB9PxijvDcLDovY3H/6dxy/fAcHzlzHrZRH7AGlSo1J4h2wez8ErQcvQe/JUaiU6Zwc/4aR3psh+qc3RP9YgE+Cv+FPY9EXRyAa4IVWAxfjHy6rodVHhENnb0D05gJ0GBpgZPVHh6H+6DQ8EH0/Woq1B34W5NXcyS4og82YYLR915fJaPeuL8zfC0RyVkHN29i+aMXun9B+qD96jA9n4NfohZ5JeADRPxeyB0nRfaevswe+/j4BL7/jg+7jwtBxWAA+WxFXR+hk8Q50HilhirpFHxCuS2KPw3xYAFPuPc+NAuj4C7dgMTwQDhMi2EoASTa/Wo4Qo+f4cHT5IAT/NWgJdv1wVZDJ79A5GhxeBm0J16ZDl/hbhK0oPbcEtmOCGQj7sWGg9WZyDrvBa/UhiPrPx7SQXez4YXYRek2KRNcPQpkSpEzCnXRBGL/TXNAEzGFCOBZ8fhihX55EyJc/sNUlci96jAtn76TBHO61qU7eMD10FzqNEDPQ3T4MZVu6d7z/V7xawpY5MvLEbf/th14TI2E1SoLXZ67Co6JyaDRaRG4/xUy+rFKOwXPXgYDSfWZD/DB/ZV2WSXJzQZP1EPC8onJBQX7Hd+N3sHgvEATotenLUVojwuQVV6D3lKWMMLLYVz+JYXJ6jAtjFsyHYF4WA01zkgB1Gi5mTJKpDZ63jsVlulHOKTFm8RZmbgSYRnDArFV1HBgv9ElBG4sO24//hvZDAxjo/562HIWl1c5z35nrzLTtPwxF/xkrcCslB//rvJrdSya+Lf4KrxrbCiGLXuQ0OQrWo4MYcEpSRi6MRcLddEwO3MGEEmCaCjQF/kjMMhBU88AUoLd9d4U5KJ7pmqCdI/cy/0GkzYzYw1Rxi97P/ETnkWJMFn9dUz0IoOnsr7fTGCACRgDtxgSz+csfd3k/hDmhn64mGgipffCkoHONmPeK3WfRYRjP9DLBCilcvvJxDIhlcmQ7TyQwdfac+p0NEk0Zx4mRyMovFdQ0AE1nL/yRIgB3nBjBHAh5QmKXRvmHX+4JD9e301zQNB9pTlOMPXbhFluPnL+JDQcv4m/TlsN+bCisRwXh3c/Wg2oDWg6fv8mmHYGj5/n5m5FXwpwZnafB+OZEtcevA5oEXbrxkHlzYpiAkyI0jyn4N2VpLmg+3JBJktPiVwpdNOikx18HLjYIQ3NiDrD7rEZK8MGSrQbqfRK8E51HiJmv4iMQ3WAUNF24fDOVVVd27wcL7l8c27R8+0lBU+ghoASa2HOcQBanM9PgLSeg1uhYLq2Q4bVpywSHtWa/LnGJv3gbcT/9AeeIPbAaFcQGjPwVRSSjoE9duS+EorPXkphjo/nSc3wE2g/xw6FzxlM7Jk3/T3NBE5PENrHnsz4e81ceZApTjCZ/QhVfzeW7S3dYVUjPUTb2MKeIZY6UYdKgUT5B85lkUrbHJ1gGTCuUKha6KH30WXeMyacMjATQg2Tur89cifIqec1319n/KOjrZmVk3ceGMVYLSioFmeHbTrLqj5SniOK7Pl645rHyIMsYSS8KubQExh5nqS7pTKtuikYyE58VsZfdYwA67uwNtB+iS+Uo3eMbChQSyNToxVR+UqHR0EJzixwOpZPUmOCXxtJQHnRKViH/CCjXH7lwM5PlMD6CATl5RedM//7pCsYmsRigL3V3nbwG788Pw3/jdwiM/R6jF21hUcj+wzD0+zgaFVK54Zym4oAU5c2FPDktSZkFgpmRwxizeKuQNwva6XcOnv2TNRpIBmVtNf1Ac0CT2AcZ+cyxUvSgQofMfPORyywXdxgfzlj8sZ4wSr6J4jc/YGd/T6oGTSZLVQyBJraHeGw0wDPObxurYMizdhsbipzCMoPr2fmlGOq5ETajg4Q8nhzS7/czhft81x1F60FLWLwd5L5GGLjD5/5kRYz1SAljJSmjbmVEDFIFRbkDRRLSg5wsAXp16jKhOhRept+RcUr8z4wVzFLpefdlB6pBF5ZWYsTCzXh7zhq8MWMlYnb+aPA81bsDZq7CO/PWswHJzCsxuC6VK1jOTmZNStE0+HzfeYN7qCz8+7RlLIWlPhtfWv58PZn5irfcvsC78zeAykRjy5K1RzFg5koMnLsWb81Zg7fd16L/9OWQbP7e2O3Cuagdp9H/0+V4y20NS6cN5rRwVzN3YnaegdWIQHwctBPnrycblaLVaKHRhxyDG7TaOpWTwXX9AT1Lg0XdWSqIjMoy8iA9w68tCtrIu57JUy9AP5O0mECpF0ybYFCfSZEvmH4maTGBUi+YNsGgPpMiXzD9TNJiAqVeMG2CQX0mRb5g+pmkxQRKvWDaBIP6TIp8DKarvyXi2zxPhojkqQFQ416j+1LpKX2r1mTQ5VIOJxIKUFhu/Mujxx8ANaJOl2PSjgpcz6A+uhJ4Sh9pNRG0Bgu2Z0M04k84eiZiVXwBSiroKyRiqdoCmg5cg5+TZTD3qYK5vwoO4SpEnJKhnH3ZpGq6mGbe2STQ2UWVsHC+h1bT7uOlaYkQTU6C44JULD1chNxSnnkt6L8GF3ZZC6VKgeHrZLANVKJvlBaOkVpYSpR4e50MR28R63SjvpHXoMDmXWwS6OhDeRCNvw0z5wdoPzsF7Wc/xMuzUiGamgb7hekIOVyCzCKpfo7Wr4huUBRYdrISFr4y9I7UoE+UFn2XAv2iAftwLWxD1HDZq0RSHn2xRHO+kYGs/3X1XmkUdIVMASevRLSa+gBmLkkMdEfXVFjMSYfF3Ey0m5MF0cxMdF30COK4EiTlktnzDqqmwnROiV0JUlgFyuAQpkbvKC36LAUDTcD7RtOxBtZBavSJVuKL8xykCiW0bBrVi+GxLzQCWosd5woYy22dE2HmkoIOsx/CfE4aOs3NgMW8THSan43Ono9g7pGHl9zyYLuoAM7by3DkjypkF3NQaTRQarR4kCuDOF4Gq4AqdA9RoXekVmCZAa4BnljvFQG0XqLA6nP0bUnLzvMGQWs0KrwpToLoo/to55ykA+yWBnP3DJjrAVt65DDQVgvzYLMoH1aLitB2fhHMPIvQW1KGgaulGLRaDscQGSx8ODiGqOAUoa4XMD8A/ZZqYBukwLHb5DN0v0c/NqX1PGAUNB+Hz9wogWjSbbSZlYj2LskgszZ3T4f5XB1oAbBnLqy982GzuAB2S4rQ1bcE9v7lsPOvhLWfFLb+MnQPUsAxVAmncDWcaC7XYJYHym+JaesgDVz3E2A12CfI9QBozmnjoKGBWqPCuOhUiCbdhZlLssByRz1gi8+ydAx75cLai1jWAe7iU4xufgS6DN3FUvSQyNAziJhWoFeYkrFMDowHaGzrEAH0jVEhtYicWU2/0ByIdZ8xCppelFMkRaup9yGamoiOrg9h7pbGnBexrAOcAysCvDAfNt4FsF1cCAJMLHcLKIO9uEIA7BDMoRdjWdUoyzQIFmIFdiVQsvJUvbcWKpUK4d/moLNrMkQfJeLlWWmwmJtu4LwE0IuqQXfzK4V9QDnsxVXoIZGjZxAHB8Zy43P5lWgNLMUqeBwisybQLTuXec7rYZq/rEFmYRXC4org6J0B0fQ0tHHLAs1lK688WC/IE1jm53J3MuvAKnQX68yaWHYMVaBXOHns+s2azWOJBh9slaKSI7M2DWBC1ghoXWZENxZXclh1ohCv+GdBNCsL7eblMOdFIUoHmOZyGboFVApzmQHmWWbOS5eI1J7H/ZZq0VmswrCNKuSX69Jb3pnyw9+S20ZA136VFhUyDhvOluNvobn4i1suzDwKYVvDY3cLlAosOwYr9HNZl4jUARsNOEVpYR6oxqTtUhRU6AqPRtPZ2mo95vFjgq6WXs5x+PLnMgyOKYGZVzHaepbAxqcC9mKp3lsr0StUxUIUb9Y1w5RTFIUlwD6UQ+hJGTiV6eZwtda6veaBrlH3arUanH8gx+K4Sry5rAK2/lWw9JHDKkCOLhIF7INV6BGmhkOkFvZhGthKNOgsVsMxSgXX/Upcy6RsS+elWz441Yb7JKAFWaQmORxalcgu4xB/m0P4Dwq47uMwZYccY7YqMSxWjUEbNBgdq8bcbxXY8qsS9/PJWZnWYQlq1tppHtNMiAp3cjlsvKTA7P1KDI9VYvBaNYbFqjB6qxoTt8ngvFuK0BNKxN9QIKuUALZsDl0LS5MPmw6amTQxq8KVdBlc9nJwiFKjsxiwC1KjR5gKDhEa9AzXoEeoCl3EClj5K1gJaeMnxRtR5fDaX4mf7nHQqPmk42kZtOF4NB00tOCUHIJOyGAfwsFGomaet7ZHJqflFKZiToxCFqWg9oFSWPtUoo1HGTp4FmNgTAk2natAqZRvGBgqZeqjJoAmNpTIq1Bg4lcKdArUgjxvn2iKuYZxlwGO1DDAjiFKlo1RktItoIrl4l19S2HnU4z2HgUQueXhVUku1p0qQWkVxeanx3qDoHUJgha5FQoM3cAxr1ubWf6YwhFVT73C1ayacghWsDS0u7gK3fwrYO9fiq6+xSyRoeLE2jsP7eY9YolOH79sLD9egIJymvf6pUaE4E+11LZB0OSVy+UcRm3lYC3RspYOD7L2lpIMqpOpsKCKisyaqqzugQS4DJSTU0FChQmVoVR/U/OBUtq2btkQTX+IngvSEBZXgLQCyr1Nx3wjoJWY/60clmJNg4AZywQ4TIWaZk1z2T6gwgAwY3lBHqvQCDB1XqgDY+GejtbUd5uSjE5uSZDsfQROaZq2cD2gaZTV2JnAwTJQ1WDBT4Cp9cOcV4gSZNY8y/aBlayZQOUm5efEso13PitUrPQsU5nKmhJz0lmTghqPIuq4TrmHpNyKlrJoAzn1gk4pkKFPjBIODVRGZOLUzXQMJ2+thKPeW1PjgFVaAeV1WLapxTK1nTpSN8YtjTUq2rukQDTlLoaEp0Klprje8mZeB7TOeanhul/OWjb9mJeu0bGs0eahbqZThM5b99J76y4BUtj4VqGLfxUDbOi88mHtlcvmMjPrz7JgQZ2YOWno6JbKWlJtnR9ANOE2jiTQl8AtD5gorwOazPrYLTmsQ7hGm3dOURrmvKj31cmXQ5dAOd6IluH1qEp08S9HG48SmHkUwXpREWsnUZeFGg/kwAg0sUxzmbHs+pC1mP/y8T28tiQJKhUlMKZZjICmn1g4tF6k1CUf0cZZJrOmENUjVAFLPxnm7a3EtQwFSqQKlMo43Mvl8NVlKSasL4OFVz5ecnsEC89c0FzmAbN+G7HsSiw/RDvnRNZuXn+C/ijdNCzTMBoBrUWxVImQ7zn0DFfBJlhVp4nHOy+ay5Z+cqw7TyGGr5b4AqR6ey2Vw7ydRbD0zIFoVjbM3PXOy13vvFxSYOachL9OvYeu7g9QXGkar83bjRHQdIkU5nAtQ4ZJ25WwklBOrcu+CDDPsoWfnDXwgaakk0o8eFSFJXsLYeeVBdG0VLRxTmXOiwC3o7k87g78d+n+jJlX0BRb46ANLEuLXVfl6L+Cg5VECSf9LxN2EjUGrpFB2uRYWi00s1COiEMF6LEgBaLJiSxEtfr0HtpOv4PkR9V/nmQKwCTTOGiDt5GySuSWK7A4Xga7EBWL3R18OZy+S2ljcxwOPaNBUYUSn8fnoS+BH3kTszfR/zulOfIMFG70oAmgeRk68BeS5RgdK4X4mP43pifOkbXsD8BPXS1BaQUHrVbd+E++vErN3D4GaHoDAaeVd1LNfGsDj5m6KUivfkzQDWj7HF16Afo5IuuJVP1/yfR/ADtUWboTQVAzAAAAAElFTkSuQmCC;" vertex="1" parent="1">
          <mxGeometry x="230" y="260" width="61" height="80" as="geometry" />
        </mxCell>
        <mxCell id="6e2yDG3WxbTbOnfnAzfk-7" style="edgeStyle=orthogonalEdgeStyle;rounded=0;orthogonalLoop=1;jettySize=auto;html=1;exitX=0.5;exitY=0;exitDx=0;exitDy=0;" edge="1" parent="1" source="6e2yDG3WxbTbOnfnAzfk-6" target="6e2yDG3WxbTbOnfnAzfk-4">
          <mxGeometry relative="1" as="geometry" />
        </mxCell>
        <mxCell id="6e2yDG3WxbTbOnfnAzfk-8" style="edgeStyle=orthogonalEdgeStyle;rounded=0;orthogonalLoop=1;jettySize=auto;html=1;exitX=1;exitY=0.5;exitDx=0;exitDy=0;entryX=0;entryY=0.5;entryDx=0;entryDy=0;" edge="1" parent="1" source="6e2yDG3WxbTbOnfnAzfk-6" target="6e2yDG3WxbTbOnfnAzfk-5">
          <mxGeometry relative="1" as="geometry" />
        </mxCell>
        <mxCell id="6e2yDG3WxbTbOnfnAzfk-6" value="" style="shape=image;html=1;verticalAlign=top;verticalLabelPosition=bottom;labelBackgroundColor=#ffffff;imageAspect=0;aspect=fixed;image=https://cdn2.iconfinder.com/data/icons/free-simple-line-mix/48/40-Web_Development-128.png" vertex="1" parent="1">
          <mxGeometry x="135.5" y="290" width="38.5" height="38.5" as="geometry" />
        </mxCell>
        <mxCell id="6e2yDG3WxbTbOnfnAzfk-9" value="" style="outlineConnect=0;dashed=0;verticalLabelPosition=bottom;verticalAlign=top;align=center;html=1;shape=mxgraph.aws3.ec2;fillColor=#F58534;gradientColor=none;" vertex="1" parent="1">
          <mxGeometry x="135.5" y="420" width="30" height="33" as="geometry" />
        </mxCell>
        <mxCell id="6e2yDG3WxbTbOnfnAzfk-10" value="" style="outlineConnect=0;dashed=0;verticalLabelPosition=bottom;verticalAlign=top;align=center;html=1;shape=mxgraph.aws3.cloud_2;fillColor=#F58534;gradientColor=none;" vertex="1" parent="1">
          <mxGeometry x="370" y="100" width="45" height="45" as="geometry" />
        </mxCell>
      </root>
    </mxGraphModel>
  </diagram>
</mxfile>
